<svg width="16" height="12" viewBox="0 0 16 12" fill="none" xmlns="http://www.w3.org/2000/svg">
<path d="M15.32 1.56C14.886 0.788 14.415 0.646 13.456 0.592C12.498 0.527 10.089 0.5 8.002 0.5C5.911 0.5 3.501 0.527 2.544 0.591C1.587 0.646 1.115 0.787 0.677 1.56C0.23 2.331 0 3.659 0 5.997C0 5.999 0 6 0 6C0 6.002 0 6.003 0 6.003V6.005C0 8.333 0.23 9.671 0.677 10.434C1.115 11.206 1.586 11.346 2.543 11.411C3.501 11.467 5.911 11.5 8.002 11.5C10.089 11.5 12.498 11.467 13.457 11.412C14.416 11.347 14.887 11.207 15.321 10.435C15.772 9.672 16 8.334 16 6.006C16 6.006 16 6.003 16 6.001C16 6.001 16 5.999 16 5.998C16 3.659 15.772 2.331 15.32 1.56ZM6 9V3L11 6L6 9Z" fill="white"/>
</svg>
