<svg width="42" height="50" viewBox="0 0 42 50" fill="none" xmlns="http://www.w3.org/2000/svg">
<path d="M41.1367 33.3307V33.2293C41.1367 31.5949 39.807 30.2652 38.1727 30.2652H36.7281V27.793C36.7281 27.388 36.3999 27.0599 35.995 27.0599C35.5901 27.0599 35.2619 27.388 35.2619 27.793V30.2652H32.9354V19.2567C32.9354 18.8518 32.6072 18.5236 32.2023 18.5236C31.7975 18.5236 31.4692 18.8518 31.4692 19.2567V30.2652H29.5769V24.6077C29.5769 23.1066 28.3556 21.8853 26.8544 21.8853H25.1233C24.1985 21.8853 23.4461 22.6375 23.4461 23.5624V30.5783L20.5082 31.5836H13.5221V31.5295C13.5221 30.3951 12.5992 29.4721 11.4646 29.4721H5.21758C4.0832 29.4721 3.16016 30.3949 3.16016 31.5295V47.9426C3.16016 49.077 4.08301 50 5.21758 50H11.4646C12.5603 50 13.456 49.1384 13.5161 48.0575H20.5081L24.246 49.3363C24.3225 49.3624 24.4026 49.3757 24.4833 49.3757H38.1728C39.807 49.3757 41.1368 48.046 41.1368 46.4117C41.1368 45.5647 40.7698 44.7803 40.1755 44.2314C40.7698 43.6827 41.1368 42.8983 41.1368 42.0513C41.1368 41.2042 40.7699 40.4198 40.1756 39.871C40.7699 39.3225 41.1368 38.538 41.1368 37.6908C41.1368 36.8437 40.7699 36.0594 40.1756 35.5105C40.7699 34.9622 41.1367 34.1778 41.1367 33.3307ZM12.0557 47.9426C12.0557 48.2685 11.7905 48.5337 11.4646 48.5337H5.21758C4.8917 48.5337 4.62646 48.2685 4.62646 47.9426V31.5295C4.62646 31.2036 4.8916 30.9384 5.21758 30.9384H11.4646C11.7904 30.9384 12.0557 31.2036 12.0557 31.5295V47.9426ZM38.4911 44.9482C39.1746 45.0959 39.6707 45.7114 39.6707 46.4119C39.6707 47.2377 38.9987 47.9096 38.173 47.9096H24.6052L20.8673 46.6308C20.7908 46.6047 20.7106 46.5914 20.63 46.5914H13.522V33.0498H20.63C20.7107 33.0498 20.7909 33.0364 20.8673 33.0104L24.4165 31.7961C24.7131 31.6947 24.9123 31.4158 24.9123 31.1024V23.5625C24.9123 23.4463 25.0069 23.3517 25.1232 23.3517H26.8543C27.547 23.3517 28.1105 23.9152 28.1105 24.6079V30.9985C28.1105 31.4035 28.4388 31.7316 28.8437 31.7316H38.1728C38.9985 31.7316 39.6705 32.4036 39.6705 33.2294V33.3308C39.6705 34.0313 39.1744 34.6468 38.491 34.7943C38.1535 34.8672 37.9126 35.1657 37.9126 35.5109C37.9126 35.8562 38.1534 36.1547 38.491 36.2275C39.1745 36.3751 39.6706 36.9907 39.6706 37.6912C39.6706 38.3917 39.1745 39.0072 38.4911 39.1548C38.1536 39.2276 37.9127 39.5262 37.9127 39.8714C37.9127 40.2166 38.1535 40.5151 38.4911 40.588C39.1746 40.7355 39.6707 41.3512 39.6707 42.0517C39.6707 42.7521 39.1746 43.3676 38.4911 43.5152C38.1536 43.5881 37.9127 43.8866 37.9127 44.2318C37.9127 44.577 38.1536 44.8755 38.4911 44.9482Z" fill="#FA7A0A"/>
<path d="M5.73345 13.5488C5.90103 13.6269 6.07251 13.6979 6.24614 13.7612C6.30708 14.5919 7.00249 15.2492 7.84839 15.2492H9.127C9.9729 15.2492 10.6683 14.5919 10.7292 13.7612C10.9029 13.6979 11.0745 13.6269 11.2419 13.5488C11.8724 14.0931 12.8288 14.0661 13.4271 13.4681L14.3312 12.564C14.6347 12.2605 14.8018 11.8571 14.8018 11.4279C14.8018 11.0386 14.6643 10.6703 14.4122 10.3789C14.4901 10.2113 14.5611 10.0398 14.6245 9.86631C15.4551 9.80527 16.1124 9.10996 16.1124 8.26396V6.98535C16.1124 6.13945 15.4551 5.44404 14.6245 5.38301C14.5612 5.20967 14.4901 5.03828 14.4122 4.87041C14.6642 4.57891 14.8018 4.21064 14.8018 3.82139C14.8018 3.39219 14.6347 2.98877 14.3312 2.68535L13.427 1.78125C12.8288 1.18301 11.8723 1.15605 11.2419 1.70049C11.0744 1.62246 10.9029 1.55156 10.7292 1.48809C10.6684 0.657324 9.973 0 9.127 0H7.84839C7.00249 0 6.30708 0.657324 6.24614 1.48799C6.07251 1.55137 5.90093 1.62236 5.73345 1.70039C5.10298 1.15605 4.14663 1.18311 3.54829 1.78115L2.64419 2.68525C2.34067 2.98867 2.17358 3.39209 2.17358 3.82129C2.17358 4.21064 2.31108 4.57891 2.56323 4.87031C2.4853 5.03809 2.41421 5.20957 2.35093 5.38291C1.52026 5.44394 0.863037 6.13936 0.863037 6.98525V8.26387C0.863037 9.10977 1.52026 9.80518 2.35093 9.86621C2.41431 10.0397 2.4853 10.2111 2.56333 10.3788C2.31108 10.6703 2.17358 11.0386 2.17358 11.4278C2.17358 11.857 2.34067 12.2605 2.64419 12.5639L3.54839 13.468C4.14653 14.0663 5.10298 14.0933 5.73345 13.5488ZM2.51157 8.4043H2.46968C2.39224 8.4043 2.32935 8.34131 2.32935 8.26396V6.98535C2.32935 6.90791 2.39233 6.84502 2.46968 6.84502H2.51157C3.04419 6.84502 3.51743 6.5043 3.68921 5.99707C3.76001 5.78799 3.84565 5.58135 3.94351 5.38301C4.18091 4.90254 4.08726 4.32666 3.7106 3.9502L3.68101 3.92061C3.64712 3.88662 3.63999 3.84795 3.63999 3.82139C3.63999 3.79482 3.64712 3.75615 3.68101 3.72217L4.58511 2.81807C4.63999 2.76318 4.72886 2.76318 4.78364 2.81807L4.81323 2.84766C5.18989 3.22422 5.76558 3.31787 6.24595 3.08057C6.44409 2.98271 6.65083 2.89707 6.86001 2.82617C7.36724 2.65439 7.70796 2.18125 7.70796 1.64844V1.60645C7.70796 1.529 7.77095 1.46611 7.84829 1.46611H9.1269C9.20434 1.46611 9.26724 1.5291 9.26724 1.60645V1.64834C9.26724 2.18105 9.60796 2.6543 10.1151 2.82598C10.3245 2.89697 10.5311 2.98262 10.7294 3.08057C11.2097 3.31768 11.7854 3.22402 12.162 2.84756L12.1916 2.81797C12.2463 2.76309 12.3353 2.76309 12.39 2.81797L13.2942 3.72207C13.3281 3.75605 13.3352 3.79473 13.3352 3.82129C13.3352 3.84785 13.3281 3.88652 13.2942 3.92051L13.2647 3.9501C12.8879 4.32676 12.7943 4.90254 13.0316 5.38262C13.1296 5.58125 13.2153 5.78789 13.2861 5.99697C13.4579 6.5041 13.9311 6.84492 14.4637 6.84492H14.5056C14.5831 6.84492 14.6459 6.90791 14.6459 6.98525V8.26387C14.6459 8.34131 14.583 8.4042 14.5056 8.4042H14.4637C13.9311 8.4042 13.4579 8.74492 13.2861 9.25205C13.2151 9.46143 13.1295 9.66807 13.0316 9.86631C12.7944 10.3467 12.888 10.9226 13.2646 11.299L13.2942 11.3286C13.3281 11.3626 13.3352 11.4013 13.3352 11.4278C13.3352 11.4544 13.3281 11.4931 13.2942 11.5271L12.3901 12.4312C12.3352 12.486 12.2463 12.486 12.1916 12.4312L12.162 12.4016C11.7853 12.0249 11.2098 11.9313 10.7292 12.1687C10.5311 12.2665 10.3244 12.3521 10.1152 12.423C9.60796 12.5948 9.26724 13.068 9.26724 13.6008V13.6427C9.26724 13.7201 9.20425 13.783 9.1269 13.783H7.84829C7.77085 13.783 7.70796 13.72 7.70796 13.6427V13.6008C7.70796 13.0681 7.36724 12.5948 6.86011 12.4231C6.65073 12.3521 6.44409 12.2665 6.24575 12.1686C6.0688 12.0812 5.87915 12.0388 5.69106 12.0388C5.3686 12.0388 5.05112 12.1638 4.81313 12.4017L4.78355 12.4312C4.72876 12.4861 4.6398 12.4861 4.58511 12.4312L3.68091 11.5271C3.64702 11.4932 3.63989 11.4545 3.63989 11.4279C3.63989 11.4014 3.64702 11.3627 3.68091 11.3287L3.7104 11.2991C4.08716 10.9225 4.18081 10.3467 3.94341 9.86641C3.84546 9.66816 3.75991 9.46143 3.68892 9.25225C3.51743 8.74502 3.04419 8.4043 2.51157 8.4043Z" fill="#FA7A0A"/>
<path d="M8.4877 11.2246C10.4728 11.2246 12.0877 9.60967 12.0877 7.62461C12.0877 5.63955 10.4728 4.02461 8.4877 4.02461C6.50264 4.02461 4.8877 5.63955 4.8877 7.62461C4.8877 9.60967 6.50264 11.2246 8.4877 11.2246ZM8.4877 5.49092C9.66426 5.49092 10.6214 6.44814 10.6214 7.62461C10.6214 8.80117 9.66416 9.7583 8.4877 9.7583C7.31123 9.7583 6.354 8.80107 6.354 7.62461C6.354 6.44814 7.31113 5.49092 8.4877 5.49092Z" fill="#FA7A0A"/>
<path d="M18.0007 8.51924C18.2813 8.61426 18.5585 8.729 18.8249 8.86055C19.3644 9.12725 20.0107 9.02207 20.4328 8.59971L20.4714 8.56104C20.6277 8.40479 20.8819 8.40488 21.0381 8.56094L22.2117 9.73467C22.2874 9.81025 22.3291 9.91094 22.3291 10.0179C22.3291 10.1248 22.2875 10.2255 22.2114 10.3015L22.1733 10.3396C21.7507 10.7621 21.6459 11.4086 21.9123 11.9479C22.0435 12.2139 22.1584 12.491 22.2535 12.772C22.4463 13.3415 22.9774 13.7242 23.5751 13.7242H23.6296C23.8505 13.7242 24.0303 13.904 24.0303 14.1249V15.7847C24.0303 16.0056 23.8506 16.1854 23.6296 16.1854H23.5751C22.9775 16.1854 22.4464 16.568 22.2536 17.1375C22.1583 17.4188 22.0435 17.696 21.9124 17.9615C21.6458 18.5011 21.7506 19.1475 22.1737 19.5704L22.2118 19.6085C22.2875 19.6841 22.3291 19.7848 22.3291 19.8917C22.3291 19.9988 22.2875 20.0994 22.2118 20.175L21.0381 21.3486C20.9625 21.4243 20.8619 21.4659 20.7548 21.4659C20.6478 21.4659 20.5472 21.4243 20.4711 21.3482L20.4332 21.3103C20.0107 20.8876 19.3641 20.7828 18.8248 21.0491C18.5588 21.1805 18.2817 21.2952 18.0005 21.3903C17.4311 21.5834 17.0486 22.1144 17.0486 22.712V22.7665C17.0486 22.9874 16.8688 23.1672 16.6479 23.1672H14.9882C14.7673 23.1672 14.5875 22.9874 14.5875 22.7665V22.712C14.5875 22.1145 14.2049 21.5834 13.6352 21.3903C13.3542 21.2951 13.077 21.1805 12.8113 21.0492C12.2719 20.7825 11.6253 20.8875 11.2032 21.3099L11.1644 21.3485C11.0887 21.4242 10.9881 21.4658 10.8811 21.4658C10.7741 21.4658 10.6735 21.4242 10.5978 21.3484L9.42427 20.1749C9.34858 20.0993 9.30688 19.9986 9.30688 19.8916C9.30688 19.7846 9.34849 19.684 9.42388 19.6086L9.46255 19.5699C9.88511 19.1474 9.98999 18.5009 9.72358 17.9613C9.59243 17.6958 9.47759 17.4187 9.38237 17.1373C9.1895 16.5678 8.65845 16.1852 8.06079 16.1852H8.0063C7.60142 16.1852 7.27319 16.5133 7.27319 16.9183C7.27319 17.3232 7.60142 17.6514 8.0063 17.6514H8.00845C8.11646 17.9644 8.24429 18.2729 8.38892 18.5698L8.38735 18.5714C8.03472 18.924 7.84058 19.3928 7.84058 19.8915C7.84058 20.3903 8.03481 20.8591 8.38735 21.2117L9.56089 22.3852C9.91352 22.7379 10.3824 22.932 10.881 22.932C11.3796 22.932 11.8486 22.7379 12.2007 22.3855L12.2026 22.3837C12.5 22.5283 12.8085 22.6562 13.121 22.7641V22.7663C13.121 23.7957 13.9584 24.6333 14.988 24.6333H16.6477C17.6771 24.6333 18.5147 23.7959 18.5147 22.7663V22.7641C18.8273 22.6562 19.1358 22.5285 19.4332 22.3837L19.4346 22.3852C19.7873 22.7379 20.2561 22.932 20.7547 22.932C21.2534 22.932 21.7223 22.7379 22.0749 22.3853L23.2484 21.2117C23.601 20.8591 23.7952 20.3903 23.7952 19.8915C23.7952 19.3928 23.6009 18.924 23.248 18.5711L23.2468 18.5698C23.3914 18.2729 23.5193 17.9644 23.6273 17.6514H23.6294C24.6588 17.6514 25.4964 16.814 25.4964 15.7844V14.1246C25.4964 13.0952 24.659 12.2576 23.6294 12.2576H23.6273C23.5194 11.9449 23.3916 11.6364 23.2468 11.3392L23.2484 11.3376C23.601 10.9851 23.7952 10.5162 23.7952 10.0175C23.7952 9.51875 23.6009 9.05 23.2484 8.69746L22.0749 7.52373C21.3468 6.7959 20.1625 6.796 19.435 7.52344L19.4331 7.52539C19.1355 7.38057 18.827 7.25264 18.5147 7.14492V7.14277C18.5147 6.73779 18.1865 6.40967 17.7816 6.40967C17.3767 6.40967 17.0485 6.73779 17.0485 7.14277V7.19727C17.0485 7.79541 17.4311 8.32656 18.0007 8.51924Z" fill="#FA7A0A"/>
<path d="M17.4185 11.1479C18.9541 11.7943 19.9464 13.2887 19.9464 14.9548C19.9464 17.2312 18.0944 19.0832 15.818 19.0832C14.1963 19.0832 12.7178 18.1274 12.0515 16.6484C11.8851 16.2791 11.4512 16.1149 11.0819 16.2811C10.7127 16.4474 10.5483 16.8814 10.7145 17.2506C11.6172 19.2546 13.6204 20.5495 15.8179 20.5495C18.9029 20.5495 21.4126 18.0397 21.4126 14.9548C21.4126 12.6972 20.0682 10.6725 17.9873 9.79639C17.6142 9.63926 17.1843 9.81445 17.0272 10.1876C16.87 10.5607 17.0452 10.9908 17.4185 11.1479Z" fill="#FA7A0A"/>
<path d="M31.4692 12.7059V16.3241C31.4692 16.7291 31.7974 17.0572 32.2023 17.0572C32.6072 17.0572 32.9354 16.7291 32.9354 16.3241V12.2519C32.9354 11.9612 32.7638 11.698 32.4978 11.581C31.1199 10.974 30.1775 9.6206 30.097 8.1332C30.0211 6.73232 30.6918 5.41035 31.8011 4.62783V7.23066C31.8011 7.71269 32.0407 8.15957 32.4425 8.42637L33.21 8.93584C33.6924 9.25605 34.3155 9.25615 34.7976 8.93594L35.5654 8.42627C35.967 8.15957 36.2067 7.71269 36.2067 7.23066V4.50244C37.3605 5.22266 38.1065 6.51025 38.1065 7.90918C38.1065 9.50234 37.1626 10.9443 35.7014 11.5828C35.4345 11.6994 35.2619 11.9633 35.2619 12.2546V24.8605C35.2619 25.2655 35.5901 25.5937 35.995 25.5937C36.3999 25.5937 36.7281 25.2655 36.7281 24.8605V12.7104C38.4709 11.7558 39.5726 9.9208 39.5726 7.90908C39.5726 5.47881 38.0106 3.37324 35.6857 2.66963C35.4637 2.60234 35.2227 2.64434 35.0365 2.78262C34.8502 2.9209 34.7403 3.13926 34.7403 3.37129V7.21387L34.0038 7.70283L33.2673 7.21396V3.43359C33.2673 3.19609 33.1522 2.97314 32.9585 2.83574C32.7648 2.69834 32.5165 2.66318 32.2922 2.7415C30.0064 3.54072 28.5015 5.79023 28.6327 8.2124C28.7342 10.0843 29.8306 11.7994 31.4692 12.7059Z" fill="#FA7A0A"/>
</svg>
