<svg width="50" height="50" viewBox="0 0 50 50" fill="none" xmlns="http://www.w3.org/2000/svg">
<path d="M49.1696 12.0824L25.6202 0.94502C25.2261 0.758594 24.774 0.758594 24.3799 0.94502L0.830371 12.0824C0.325977 12.321 0 12.8357 0 13.3937V16.5931C0 17.4112 0.667676 18.0446 1.44961 18.0446C1.96582 18.0446 2.21367 17.8033 3.12539 17.4056V47.6661C3.12539 48.509 3.81113 49.1947 4.654 49.1947H45.346C46.1889 49.1947 46.8746 48.509 46.8746 47.6661V17.4056L47.9293 17.9044C48.8923 18.3598 50 17.6566 50 16.5931V13.3937C50 12.8357 49.674 12.3211 49.1696 12.0824ZM39.7052 24.7682V47.73H35.8428V45.4785C35.8428 45.074 35.5149 44.7461 35.1104 44.7461C34.7058 44.7461 34.3779 45.074 34.3779 45.4785V47.7299H25.1978V39.8029H27.3493V42.6078C27.3493 43.2923 27.9062 43.8491 28.5907 43.8491H30.985C31.6695 43.8491 32.2264 43.2923 32.2264 42.6078V39.8029H34.3779V42.0543C34.3779 42.4588 34.7058 42.7867 35.1104 42.7867C35.5149 42.7867 35.8428 42.4588 35.8428 42.0543V39.6967C35.8428 38.9476 35.2333 38.3381 34.4842 38.3381H30.5202V30.3049C30.5202 29.5558 29.9108 28.9463 29.1617 28.9463H19.769C19.0199 28.9463 18.4104 29.5558 18.4104 30.3049V38.3381H14.4466C13.6975 38.3381 13.088 38.9476 13.088 39.6967V47.7299H10.2947V24.7682H39.7052ZM20.1165 39.803V42.3844H18.1692V39.803H20.1165ZM25.439 30.4112V32.9926H23.4917V30.4112H25.439ZM23.2683 34.4574H25.6626C26.3471 34.4574 26.9039 33.9006 26.9039 33.2161V30.4112H29.0555V38.3382C27.9396 38.3382 20.9942 38.3382 19.8754 38.3382V30.4112H22.027V33.2161C22.0269 33.9006 22.5837 34.4574 23.2683 34.4574ZM28.8143 39.803H30.7615V42.3844H28.8143V39.803ZM17.9458 43.8492H20.34C21.0245 43.8492 21.5813 43.2924 21.5813 42.6079V39.803H23.7329V47.73H14.5528V39.803H16.7044V42.6079C16.7044 43.2924 17.2612 43.8492 17.9458 43.8492ZM45.4098 47.6661C45.4098 47.7013 45.3811 47.7299 45.346 47.7299H41.17V24.7682H42.0107C42.7504 24.7682 43.3521 24.1664 43.3521 23.4268V20.9163C43.3521 20.1767 42.7504 19.5749 42.0107 19.5749H15.5323C15.1278 19.5749 14.7999 19.9028 14.7999 20.3073C14.7999 20.7118 15.1278 21.0397 15.5323 21.0397H41.8873V23.3033H8.11269V21.0397H12.1084C12.5129 21.0397 12.8408 20.7118 12.8408 20.3073C12.8408 19.9028 12.5129 19.5749 12.1084 19.5749H7.98926C7.24961 19.5749 6.64785 20.1767 6.64785 20.9163V23.4268C6.64785 24.1664 7.24961 24.7682 7.98926 24.7682H8.82988V47.73H4.654C4.61885 47.73 4.59023 47.7014 4.59023 47.6662V16.7128L25 7.06025L45.4099 16.7129V47.6661H45.4098ZM48.5352 16.5705L25.6202 5.73311C25.423 5.63984 25.2115 5.59326 25 5.59326C24.7885 5.59326 24.5769 5.63984 24.3799 5.73311L1.46484 16.5704V13.4027L25 2.27207L48.5352 13.4027V16.5705Z" fill="#FA7A0A"/>
</svg>
