<svg width="50" height="42" viewBox="0 0 50 42" fill="none" xmlns="http://www.w3.org/2000/svg">
<path d="M49.9895 11.3718C49.9891 10.5168 49.6528 9.76279 49.0171 9.1915L41.4171 2.35986C40.4718 1.51035 39.2799 0.64209 37.6041 0.64209C37.6036 0.64209 37.6028 0.64209 37.6023 0.64209C35.9255 0.642676 34.7335 1.51211 33.7887 2.3626L26.1936 9.19941C25.5581 9.77129 25.2225 10.5256 25.2228 11.3806L25.2263 20.155H20.1822C21.0951 18.2592 21.731 15.2645 21.0169 13.022C20.5144 11.4437 19.4076 10.4033 17.8164 10.0131C17.6133 9.96318 17.3987 9.99697 17.2207 10.1066C17.0427 10.2162 16.916 10.3928 16.869 10.5965C16.7824 10.9728 16.7022 11.3255 16.627 11.657C15.6886 15.7893 15.568 16.3203 12.9761 18.0144C11.145 19.2111 11.015 19.3656 9.87627 21.027C9.75996 21.1967 9.63164 21.3838 9.48799 21.5916C9.02686 22.2586 8.43691 22.5594 7.57959 22.5669L7.51348 22.5671V22.38C7.51348 21.4069 6.72188 20.6153 5.74873 20.6153H1.76465C0.791602 20.6153 0 21.4069 0 22.38V39.5932C0 40.5663 0.791602 41.3579 1.76465 41.3579H5.74883C6.72188 41.3579 7.51357 40.5663 7.51357 39.5932V38.7924C7.86572 38.9152 8.21777 39.0463 8.58027 39.1816C10.3552 39.8445 12.3668 40.5959 15.3536 40.5959H25.7243C26.1664 40.5959 26.5871 40.5036 26.969 40.3381C27.344 40.5067 27.7503 40.5959 28.1668 40.5959H28.1675L47.0679 40.5894C48.6853 40.5887 50.0006 39.2724 49.9999 37.655L49.9895 11.3718ZM5.95107 39.5932C5.95107 39.7028 5.8585 39.7954 5.74883 39.7954H1.76465C1.65508 39.7954 1.5625 39.7028 1.5625 39.5932V22.38C1.5625 22.2704 1.65508 22.1778 1.76465 22.1778H5.74883C5.8585 22.1778 5.95107 22.2704 5.95107 22.38V39.5932ZM15.3536 39.0334C12.6491 39.0334 10.8586 38.3646 9.12705 37.7179C8.6043 37.5227 8.06826 37.3225 7.51367 37.1437V24.1296L7.58896 24.1294C8.95371 24.1175 10.0252 23.5625 10.7734 22.48C10.9184 22.2704 11.0478 22.0816 11.1651 21.9104C12.2153 20.3782 12.2153 20.3782 13.8311 19.3222C16.9519 17.2824 17.1819 16.2688 18.1507 12.003C18.165 11.9397 18.1796 11.8755 18.1943 11.8105C18.8382 12.1523 19.2775 12.7092 19.5281 13.496C20.2652 15.8108 19.1028 19.3746 18.1934 20.4247C17.9932 20.6559 17.9463 20.9826 18.0733 21.2608C18.2005 21.5391 18.4781 21.7175 18.784 21.7175H27.7156C28.586 21.7175 29.2941 22.4256 29.2941 23.296C29.2941 24.1664 28.586 24.8746 27.7156 24.8746H21.5579C21.1265 24.8746 20.7767 25.2244 20.7767 25.6559C20.7767 26.0873 21.1265 26.4371 21.5579 26.4371H29.0061C29.8765 26.4371 30.5846 27.1452 30.5846 28.0156C30.5846 28.886 29.8765 29.5942 29.0061 29.5942H21.5579C21.1265 29.5942 20.7767 29.944 20.7767 30.3755C20.7767 30.8069 21.1265 31.1567 21.5579 31.1567H28.1949C29.0653 31.1567 29.7734 31.8648 29.7734 32.7353C29.7734 33.6057 29.0653 34.3138 28.1949 34.3138H21.5579C21.1265 34.3138 20.7767 34.6636 20.7767 35.095C20.7767 35.5265 21.1265 35.8763 21.5579 35.8763H25.7244C26.5948 35.8763 27.303 36.5845 27.303 37.4549C27.303 38.3253 26.5949 39.0334 25.7244 39.0334H15.3536ZM47.0673 39.0269L28.4383 39.0333C28.7093 38.5691 28.8654 38.0301 28.8654 37.4549C28.8654 36.8761 28.7081 36.3334 28.434 35.8673C30.0547 35.7446 31.3359 34.3867 31.3359 32.7353C31.3359 31.9689 31.0601 31.2658 30.6024 30.72C31.5263 30.1726 32.1471 29.1651 32.1471 28.0156C32.1471 26.7292 31.3696 25.621 30.2601 25.1358C30.6353 24.6184 30.8566 23.9826 30.8566 23.296C30.8566 21.5641 29.4476 20.155 27.7156 20.155H26.7889L26.7854 11.3801C26.7853 10.9691 26.9336 10.6357 27.239 10.3608L34.8341 3.52393C35.8748 2.58711 36.6771 2.20498 37.603 2.20459H37.6042C38.5294 2.20459 39.3317 2.58633 40.3728 3.52188L47.9728 10.3535C48.2783 10.6282 48.427 10.9615 48.4272 11.3725L48.4375 37.6556C48.4378 38.4114 47.8231 39.0266 47.0673 39.0269ZM42.2962 28.4543C42.4106 29.3972 42.1579 30.2577 41.5654 30.9428C40.8686 31.7484 39.7105 32.2886 38.3927 32.4401V33.4339C38.3927 33.8653 38.0429 34.2151 37.6114 34.2151C37.18 34.2151 36.8302 33.8653 36.8302 33.4339V32.4288C34.8786 32.1606 33.3616 30.9267 32.9225 29.1651C32.8181 28.7465 33.0729 28.3225 33.4915 28.2181C33.9104 28.1144 34.3342 28.3686 34.4386 28.7871C34.8433 30.4101 36.4765 30.9516 37.7528 30.9197C38.8487 30.8937 39.8813 30.5016 40.3837 29.9207C40.6886 29.5683 40.8068 29.1501 40.7452 28.6426C40.5994 27.4414 39.5974 26.752 37.4961 26.4069C34.152 25.8578 33.3732 24.1618 33.309 22.8358C33.2197 20.9984 34.5061 19.4584 36.5099 19.0039C36.6149 18.9802 36.7219 18.9596 36.8304 18.9425V17.9264C36.8304 17.4949 37.1802 17.1451 37.6116 17.1451C38.0431 17.1451 38.3929 17.4949 38.3929 17.9264V18.9358C39.8232 19.1477 41.2343 19.9763 41.9393 21.6555C42.1063 22.0532 41.9192 22.5112 41.5214 22.6782C41.1234 22.8454 40.6656 22.6582 40.4986 22.2604C39.821 20.6465 38.1807 20.2273 36.8555 20.5279C35.8541 20.755 34.8065 21.4607 34.8697 22.7603C34.8895 23.1672 34.9495 24.4056 37.7493 24.8652C38.7866 25.0354 41.9441 25.5538 42.2962 28.4543ZM37.605 11.118C39.1391 11.118 40.3872 9.86992 40.3872 8.33574C40.3872 6.80156 39.1392 5.55352 37.605 5.55352C36.0708 5.55352 34.8227 6.80156 34.8227 8.33574C34.8227 9.86992 36.0708 11.118 37.605 11.118ZM37.605 7.11592C38.2775 7.11592 38.8247 7.66318 38.8247 8.33564C38.8247 9.00811 38.2775 9.55537 37.605 9.55537C36.9324 9.55537 36.3852 9.00811 36.3852 8.33564C36.3852 7.66318 36.9324 7.11592 37.605 7.11592Z" fill="#FA7A0A"/>
</svg>
