<svg width="50" height="47" viewBox="0 0 50 47" fill="none" xmlns="http://www.w3.org/2000/svg">
<path d="M42.5459 34.2158C42.4981 34.1249 42.4329 34.0443 42.354 33.9786C42.2751 33.9129 42.184 33.8635 42.0859 33.833L39.1035 32.9014C38.9057 32.8396 38.6916 32.859 38.5081 32.9551C38.3246 33.0512 38.1868 33.2163 38.125 33.4141L37.8906 34.1631L31.1836 32.0684L28.0332 31.0781C27.7234 30.9806 27.3968 30.9485 27.074 30.984C26.7512 31.0195 26.4393 31.1217 26.1582 31.2842L18.0381 35.9746C17.7573 36.1253 17.51 36.3315 17.3112 36.5806C17.1125 36.8297 16.9664 37.1166 16.8818 37.4238L10.4902 35.4287C9.89697 35.2435 9.25445 35.3015 8.70395 35.5899C8.15346 35.8783 7.74006 36.3736 7.55466 36.9668L7.08884 38.458C6.90346 39.0514 6.96135 39.6941 7.24979 40.2448C7.53823 40.7955 8.03359 41.209 8.62693 41.3945L25.0771 46.5312C25.6633 46.7156 26.2984 46.6612 26.8447 46.3799L33.6299 42.8887C33.8124 42.7957 34.024 42.7775 34.2197 42.8379L35.0967 43.1123L34.8642 43.8545C34.8028 44.0522 34.8222 44.2663 34.9183 44.4497C35.0144 44.6332 35.1794 44.771 35.3769 44.833L38.3603 45.7646C38.4359 45.7882 38.5146 45.8001 38.5937 45.7998C38.7601 45.7997 38.922 45.7465 39.0561 45.648C39.1901 45.5494 39.2891 45.4107 39.3388 45.2519L42.5996 34.8115C42.661 34.6136 42.6417 34.3995 42.5459 34.2158ZM34.6855 41.3467C34.098 41.1613 33.461 41.2165 32.914 41.5L26.1328 44.9893C25.9504 45.0828 25.7385 45.1007 25.5429 45.0391L9.09275 39.9023C8.89502 39.8405 8.72993 39.7027 8.63379 39.5192C8.53764 39.3357 8.51831 39.1216 8.58005 38.9238L9.04587 37.4326C9.07619 37.3345 9.12561 37.2434 9.19127 37.1645C9.25694 37.0856 9.33756 37.0204 9.4285 36.9728C9.51944 36.9251 9.6189 36.8959 9.72117 36.8868C9.82344 36.8778 9.92649 36.889 10.0244 36.9199L17.0586 39.1162C17.0612 39.1209 17.0635 39.1258 17.0654 39.1309L17.791 40.5137C18.0796 41.0642 18.5751 41.4776 19.1684 41.6629C19.7617 41.8482 20.4044 41.7903 20.9551 41.5019L27.1826 38.2383C27.274 38.1909 27.3551 38.126 27.4213 38.0472C27.4875 37.9684 27.5375 37.8773 27.5684 37.7791C27.5993 37.681 27.6105 37.5777 27.6014 37.4752C27.5922 37.3726 27.5629 37.2729 27.5151 37.1818C27.4673 37.0907 27.402 37.0098 27.3229 36.944C27.2437 36.8782 27.1524 36.8287 27.0541 36.7982C26.9558 36.7678 26.8524 36.7571 26.7499 36.7668C26.6475 36.7764 26.5479 36.8062 26.457 36.8545L20.2295 40.1182C20.0459 40.214 19.8318 40.2331 19.6342 40.1714C19.4365 40.1097 19.2713 39.9723 19.1748 39.7891L18.4502 38.4053C18.4257 38.3588 18.4057 38.3101 18.3906 38.2598C18.3407 38.0866 18.3522 37.9016 18.423 37.7359C18.4938 37.5703 18.6197 37.4342 18.7793 37.3506C18.789 37.3457 18.7978 37.3398 18.8076 37.335L26.9404 32.6367C27.034 32.5827 27.1378 32.5487 27.2452 32.5369C27.3527 32.5252 27.4614 32.5359 27.5644 32.5684L30.7168 33.5596L37.4248 35.6543L35.5625 41.6201L34.6855 41.3467ZM38.0801 44.04L36.5888 43.5742L36.7998 42.8975C36.8086 42.876 36.8174 42.8555 36.8242 42.833L39.1523 35.376C39.1592 35.3535 39.165 35.3311 39.1699 35.3096L39.3838 34.626L40.875 35.0918L38.0801 44.04Z" fill="#FA7A0A"/>
<path d="M28.125 6.03125C27.1979 6.03125 26.2916 6.30617 25.5208 6.82124C24.7499 7.33631 24.1491 8.06839 23.7943 8.92492C23.4395 9.78145 23.3467 10.7239 23.5276 11.6332C23.7084 12.5425 24.1549 13.3778 24.8104 14.0333C25.466 14.6889 26.3012 15.1353 27.2105 15.3162C28.1198 15.497 29.0623 15.4042 29.9188 15.0494C30.7754 14.6946 31.5074 14.0938 32.0225 13.323C32.5376 12.5521 32.8125 11.6459 32.8125 10.7188C32.8111 9.47597 32.3168 8.28448 31.4381 7.4057C30.5593 6.52692 29.3678 6.03262 28.125 6.03125ZM28.125 13.8438C27.5069 13.8438 26.9027 13.6605 26.3888 13.3171C25.8749 12.9737 25.4744 12.4857 25.2379 11.9146C25.0014 11.3436 24.9395 10.7153 25.06 10.1091C25.1806 9.5029 25.4783 8.94608 25.9153 8.50904C26.3523 8.072 26.9092 7.77437 27.5153 7.6538C28.1215 7.53322 28.7499 7.5951 29.3209 7.83163C29.8919 8.06815 30.38 8.46869 30.7233 8.98259C31.0667 9.4965 31.25 10.1007 31.25 10.7188C31.2491 11.5473 30.9195 12.3416 30.3337 12.9274C29.7478 13.5133 28.9535 13.8428 28.125 13.8438Z" fill="#FA7A0A"/>
<path d="M39.8438 21.6562H42.9688C43.176 21.6562 43.3747 21.5739 43.5212 21.4274C43.6677 21.2809 43.75 21.0822 43.75 20.875C43.75 20.6678 43.6677 20.4691 43.5212 20.3226C43.3747 20.1761 43.176 20.0938 42.9688 20.0938H41.4062C41.4062 19.8865 41.3239 19.6878 41.1774 19.5413C41.0309 19.3948 40.8322 19.3125 40.625 19.3125C40.4178 19.3125 40.2191 19.3948 40.0726 19.5413C39.9261 19.6878 39.8438 19.8865 39.8438 20.0938C39.2221 20.0938 38.626 20.3407 38.1865 20.7802C37.7469 21.2198 37.5 21.8159 37.5 22.4375C37.5 23.0591 37.7469 23.6552 38.1865 24.0948C38.626 24.5343 39.2221 24.7812 39.8438 24.7812H41.3086C41.7686 24.7812 42.1875 25.1536 42.1875 25.5625C42.1873 25.7696 42.1049 25.9682 41.9584 26.1147C41.812 26.2611 41.6134 26.3435 41.4062 26.3438H38.2812C38.074 26.3438 37.8753 26.4261 37.7288 26.5726C37.5823 26.7191 37.5 26.9178 37.5 27.125C37.5 27.3322 37.5823 27.5309 37.7288 27.6774C37.8753 27.8239 38.074 27.9062 38.2812 27.9062H39.8438C39.8438 28.1135 39.9261 28.3122 40.0726 28.4587C40.2191 28.6052 40.4178 28.6875 40.625 28.6875C40.8322 28.6875 41.0309 28.6052 41.1774 28.4587C41.3239 28.3122 41.4062 28.1135 41.4062 27.9062C42.0276 27.9055 42.6234 27.6584 43.0627 27.219C43.5021 26.7796 43.7493 26.1839 43.75 25.5625C43.75 24.292 42.632 23.2188 41.3086 23.2188H39.8438C39.6365 23.2188 39.4378 23.1364 39.2913 22.9899C39.1448 22.8434 39.0625 22.6447 39.0625 22.4375C39.0625 22.2303 39.1448 22.0316 39.2913 21.8851C39.4378 21.7386 39.6365 21.6562 39.8438 21.6562Z" fill="#FA7A0A"/>
<path d="M45.3125 16.8008V1.34375C45.3125 1.13655 45.2302 0.937836 45.0837 0.791323C44.9372 0.64481 44.7384 0.5625 44.5312 0.5625H11.7188C11.5115 0.5625 11.3128 0.64481 11.1663 0.791323C11.0198 0.937836 10.9375 1.13655 10.9375 1.34375V13.8438H3.125C2.50365 13.8446 1.90799 14.0918 1.46863 14.5311C1.02927 14.9705 0.782077 15.5662 0.78125 16.1875V27.125C0.782077 27.7463 1.02927 28.342 1.46863 28.7814C1.90799 29.2207 2.50365 29.4679 3.125 29.4688H20.3125C20.9338 29.4679 21.5295 29.2207 21.9689 28.7814C22.4082 28.342 22.6554 27.7463 22.6562 27.125V20.875H32.6191C32.0275 22.3886 31.8771 24.039 32.1854 25.6346C32.4937 27.2303 33.2481 28.7058 34.361 29.89C35.474 31.0743 36.8999 31.9187 38.4734 32.3254C40.0468 32.732 41.7033 32.6843 43.2507 32.1876C44.7981 31.6909 46.173 30.7657 47.2158 29.5193C48.2587 28.2729 48.9268 26.7563 49.1426 25.1455C49.3585 23.5348 49.1132 21.8959 48.4353 20.4188C47.7573 18.9418 46.6746 17.6873 45.3125 16.8008ZM12.5 2.125H43.75V15.9941C42.7542 15.6048 41.6942 15.4054 40.625 15.4062C40.4502 15.4062 40.2764 15.4121 40.1045 15.4229C40.677 14.9097 41.4186 14.6256 42.1875 14.625C42.3947 14.625 42.5934 14.5427 42.7399 14.3962C42.8864 14.2497 42.9688 14.051 42.9688 13.8438V7.59375C42.9688 7.38655 42.8864 7.18784 42.7399 7.04132C42.5934 6.89481 42.3947 6.8125 42.1875 6.8125C41.359 6.81141 40.5648 6.48183 39.979 5.89601C39.3932 5.31019 39.0636 4.51597 39.0625 3.6875C39.0625 3.4803 38.9802 3.28159 38.8337 3.13507C38.6872 2.98856 38.4884 2.90625 38.2812 2.90625H17.9688C17.7615 2.90625 17.5628 2.98856 17.4163 3.13507C17.2698 3.28159 17.1875 3.4803 17.1875 3.6875C17.1864 4.51597 16.8568 5.31019 16.271 5.89601C15.6852 6.48183 14.891 6.81141 14.0625 6.8125C13.8553 6.8125 13.6566 6.89481 13.5101 7.04132C13.3636 7.18784 13.2812 7.38655 13.2812 7.59375V13.8438H12.5V2.125ZM21.0938 27.125C21.0935 27.3321 21.0111 27.5307 20.8646 27.6771C20.7182 27.8236 20.5196 27.906 20.3125 27.9062H3.125C2.91789 27.906 2.71934 27.8236 2.57289 27.6771C2.42644 27.5307 2.34403 27.3321 2.34375 27.125V21.6562H21.0938V27.125ZM21.0938 20.0938H2.34375V18.5312H21.0938V20.0938ZM21.0938 16.9688H2.34375V16.1875C2.34403 15.9804 2.42644 15.7818 2.57289 15.6354C2.71934 15.4889 2.91789 15.4065 3.125 15.4062H20.3125C20.5196 15.4065 20.7182 15.4889 20.8646 15.6354C21.0111 15.7818 21.0935 15.9804 21.0938 16.1875V16.9688ZM20.3125 13.8438H16.6533C16.1077 13.4794 15.4909 13.2351 14.8438 13.127V8.30957C15.8028 8.14579 16.6874 7.68834 17.3754 7.00036C18.0633 6.31239 18.5208 5.42781 18.6846 4.46875H37.5654C37.7292 5.42781 38.1867 6.31239 38.8746 7.00036C39.5626 7.68834 40.4472 8.14579 41.4062 8.30957V13.1279C40.6434 13.2571 39.9244 13.573 39.3134 14.0475C38.7023 14.5221 38.2182 15.1405 37.9043 15.8477C37.1156 16.112 36.3695 16.4896 35.6895 16.9688H22.6562V16.1875C22.6554 15.5662 22.4082 14.9705 21.9689 14.5311C21.5295 14.0918 20.9338 13.8446 20.3125 13.8438ZM22.6562 19.3125V18.5312H34.001C33.7948 18.7808 33.6028 19.0416 33.4258 19.3125H22.6562ZM40.625 31.0312C39.2343 31.0312 37.8749 30.6189 36.7186 29.8463C35.5624 29.0737 34.6612 27.9755 34.129 26.6907C33.5968 25.4059 33.4576 23.9922 33.7289 22.6283C34.0002 21.2643 34.6698 20.0115 35.6532 19.0282C36.6365 18.0448 37.8893 17.3752 39.2533 17.1039C40.6172 16.8326 42.0309 16.9718 43.3157 17.504C44.6005 18.0361 45.6987 18.9374 46.4713 20.0936C47.2439 21.2499 47.6562 22.6094 47.6562 24C47.6541 25.8641 46.9126 27.6513 45.5945 28.9695C44.2763 30.2876 42.4891 31.0291 40.625 31.0312Z" fill="#FA7A0A"/>
</svg>
