<svg width="50" height="50" viewBox="0 0 50 50" fill="none" xmlns="http://www.w3.org/2000/svg">
<g clip-path="url(#clip0_102_93)">
<path d="M33.8745 32.8914C33.3347 32.8914 32.8983 33.3286 32.8983 33.8676C32.8983 34.4074 33.3347 34.8438 33.8745 34.8438C34.4135 34.8438 34.8507 34.4074 34.8507 33.8676C34.8507 33.3286 34.4135 32.8914 33.8745 32.8914V32.8914Z" fill="#FA7A0A"/>
<path d="M16.1258 15.1535C15.5861 15.1535 15.1497 15.5899 15.1497 16.1297C15.1497 16.6687 15.5861 17.1059 16.1258 17.1059C16.6649 17.1059 17.102 16.6687 17.102 16.1297C17.102 15.5899 16.6649 15.1535 16.1258 15.1535Z" fill="#FA7A0A"/>
<path d="M43.6679 13.221C45.5733 11.3167 45.5729 8.22375 43.6679 6.31869C41.7647 4.41554 38.668 4.41554 36.7652 6.31869C34.8597 8.2226 34.8597 11.3156 36.7648 13.2206C38.6691 15.126 41.7621 15.1264 43.6679 13.221ZM38.1453 7.69923C39.2871 6.55787 41.1452 6.55711 42.2873 7.69923C43.4291 8.84096 43.4298 10.6987 42.2877 11.8401H42.2873C41.1452 12.9822 39.2875 12.9833 38.1453 11.8401C37.0036 10.6987 37.0028 8.84096 38.1453 7.69923Z" fill="#FA7A0A"/>
<path d="M6.31518 36.7763C4.40974 38.6806 4.40859 41.774 6.31479 43.6786C8.21871 45.5841 11.3117 45.5845 13.2167 43.679C13.2167 43.679 13.2167 43.679 13.2171 43.6786C15.1222 41.7743 15.1229 38.6814 13.2171 36.7767C11.3128 34.8717 8.21947 34.8709 6.31518 36.7763ZM11.8366 42.2981C11.8362 42.2981 11.8362 42.2981 11.8362 42.2985C10.6952 43.4402 8.83745 43.4414 7.69533 42.2981C6.55321 41.1568 6.55245 39.2998 7.69571 38.1569C8.83669 37.0151 10.6941 37.0144 11.8366 38.1576C12.9787 39.299 12.9787 41.1564 11.8366 42.2981Z" fill="#FA7A0A"/>
<path d="M45.9304 32.304C43.5092 30.5649 40.5425 30.0281 37.7048 30.796L31.8751 24.9699C33.3755 23.4703 36.7827 20.0615 37.6548 19.1914C40.9347 20.0817 44.5681 19.2234 47.119 16.6725C50.9341 12.8575 50.9349 6.68261 47.119 2.86678C43.3036 -0.948295 37.1291 -0.949058 33.3129 2.86716C30.8284 5.35243 29.8885 8.89513 30.7891 12.2399C30.5266 12.5027 30.165 12.8647 29.7305 13.3C28.5205 14.5115 26.7444 16.2903 24.9683 18.0668L19.197 12.2986C19.4167 11.4769 19.5277 10.6289 19.5277 9.76984C19.5277 3.11626 12.9703 -1.61434 6.64821 0.516546C6.32739 0.624502 6.08554 0.891149 6.00925 1.22112C5.93257 1.55071 6.03214 1.89632 6.27246 2.13474L10.3515 6.18174V8.13219L8.12831 10.3554H6.17786L2.13085 6.27673C1.89243 6.0364 1.54644 5.93684 1.21685 6.01313C0.887264 6.08981 0.620617 6.33166 0.512661 6.65248C-0.797685 10.5404 0.409283 15.0646 4.07139 17.6952C6.48914 19.4317 9.45506 19.9703 12.2959 19.2017L18.0644 24.9672C16.0777 26.9512 13.3567 29.6684 12.2386 30.7815C8.88286 29.9015 5.33863 30.8491 2.86289 33.3248C-0.95218 37.1399 -0.952943 43.3147 2.86289 47.1305C6.67835 50.946 12.8532 50.9464 16.6686 47.1305C19.218 44.5816 20.0805 40.9454 19.1844 37.656C19.5854 37.2555 24.7131 32.1289 24.9717 31.8703L30.8017 37.6983C30.0342 40.5365 30.5709 43.5032 32.3104 45.9247C34.9502 49.5994 39.4835 50.7835 43.3516 49.4812C43.6709 49.3736 43.912 49.1092 43.9902 48.7815C44.068 48.4542 43.9715 48.1094 43.7346 47.8698L39.7357 43.8217V41.8663L41.8708 39.7396H43.8285L47.8778 43.729C48.1173 43.9647 48.4614 44.0609 48.7891 43.983C49.1164 43.9048 49.3804 43.6641 49.488 43.3452C50.7933 39.4699 49.6005 34.9407 45.9304 32.304V32.304ZM31.1122 14.6793C31.8744 13.916 32.4119 13.3782 32.5824 13.2076C32.8452 12.9456 32.9364 12.5569 32.8178 12.2048C31.8721 9.4002 32.5908 6.35112 34.6934 4.2477C37.746 1.19518 42.6856 1.1948 45.7381 4.2477C48.7906 7.29983 48.791 12.2395 45.7381 15.292C43.6175 17.4133 40.5356 18.1297 37.6945 17.1631C37.3439 17.0437 36.9559 17.133 36.6931 17.3939C36.209 17.873 33.4712 20.6139 30.4942 23.5897L26.3492 19.4469C28.1245 17.6712 29.9018 15.8917 31.1122 14.6793ZM17.3896 36.6894C17.1256 36.9526 17.0348 37.3428 17.1554 37.6957C18.1274 40.5403 17.4117 43.6268 15.2881 45.75C12.236 48.8021 7.29633 48.8029 4.24343 45.75C1.19129 42.6979 1.19091 37.7582 4.24343 34.7053C6.33922 32.6095 9.3925 31.8828 12.2123 32.8087C12.5602 32.9227 12.9428 32.8327 13.2034 32.5752C13.8286 31.9565 17.1344 28.6556 19.4454 26.347L23.5904 30.4901C23.3688 30.7117 17.8237 36.2556 17.3896 36.6894V36.6894ZM47.9949 41.1037L44.9134 38.068C44.7307 37.8879 44.4846 37.7872 44.2283 37.7872H41.4676C41.2093 37.7872 40.9617 37.8895 40.7786 38.0718L38.0706 40.7692C37.8867 40.9523 37.7833 41.201 37.7833 41.4608V44.2222C37.7833 44.4793 37.8844 44.7258 38.0649 44.9085L41.1082 47.9888C38.3468 48.2967 35.6048 47.1637 33.8962 44.7853C32.4073 42.7131 32.019 40.1424 32.8307 37.7327C32.949 37.3813 32.8578 36.993 32.5957 36.7306L13.2625 17.4076C12.9993 17.1444 12.6106 17.0548 12.2608 17.1726C9.85141 17.9844 7.28145 17.5972 5.21045 16.1095C2.86251 14.4226 1.70056 11.705 2.00192 8.91878L5.07846 12.0194C5.26157 12.204 5.51105 12.3081 5.77121 12.3081H8.53305C8.79207 12.3081 9.0404 12.2051 9.22351 12.022L12.0182 9.22701C12.2013 9.04391 12.3043 8.79595 12.3043 8.53693V5.7751C12.3043 5.51494 12.2001 5.26546 12.0155 5.08235L8.9149 2.0058C13.5612 1.50379 17.5754 5.1514 17.5754 9.76984C17.5754 10.6236 17.4388 11.4632 17.1687 12.265C17.0505 12.6164 17.1417 13.0047 17.4037 13.2672L36.7377 32.5901C37.0002 32.8522 37.3881 32.9433 37.7395 32.8247C40.1488 32.0133 42.7192 32.4013 44.7913 33.8898C47.1904 35.6132 48.2989 38.3663 47.9949 41.1037V41.1037Z" fill="#FA7A0A"/>
<path d="M19.5766 18.1999C19.1951 17.8192 18.5771 17.8192 18.196 18.2007C17.8149 18.5822 17.8153 19.2001 18.1964 19.5812L30.4229 31.7978C30.804 32.1785 31.4219 32.1785 31.8034 31.797C32.1845 31.4155 32.1841 30.7976 31.8026 30.4165L19.5766 18.1999Z" fill="#FA7A0A"/>
</g>
<defs>
<clipPath id="clip0_102_93">
<rect width="50" height="50" fill="white"/>
</clipPath>
</defs>
</svg>
