<svg width="50" height="50" viewBox="0 0 50 50" fill="none" xmlns="http://www.w3.org/2000/svg">
<g clip-path="url(#clip0_1_532)">
<path d="M1.5625 42.9719H2.75C2.83125 43.2031 2.92578 43.4289 3.03047 43.65L2.19062 44.4898C2.04375 44.6367 1.96172 44.8352 1.96172 45.0422C1.96172 45.2492 2.04375 45.4484 2.19062 45.5945L4.40469 47.8086C4.69766 48.1016 5.21641 48.1016 5.50938 47.8086L6.35 46.968C6.57109 47.0734 6.79687 47.1664 7.02734 47.2477V48.4375C7.02734 48.8687 7.37734 49.2188 7.80859 49.2188H10.9398C11.3711 49.2188 11.7211 48.8687 11.7211 48.4375V47.2461C11.9508 47.1648 12.1766 47.0711 12.3961 46.9664L13.2391 47.8094C13.3859 47.9562 13.5844 48.0383 13.7914 48.0383C13.9984 48.0383 14.1977 47.9562 14.3438 47.8094L16.5578 45.5953C16.7047 45.4484 16.7867 45.25 16.7867 45.043C16.7867 44.8359 16.7047 44.6367 16.5578 44.4906L15.7141 43.6469C15.8188 43.4273 15.9117 43.2023 15.993 42.9727H17.1875C17.6187 42.9727 17.9688 42.6227 17.9688 42.1914V39.0602C17.9688 38.6289 17.6187 38.2789 17.1875 38.2789H15.9938C15.9125 38.0492 15.8195 37.8242 15.7148 37.6047L16.5586 36.7609C16.7055 36.6141 16.7875 36.4156 16.7875 36.2086C16.7875 36.0016 16.7055 35.8023 16.5586 35.6562L14.3445 33.4422C14.0516 33.1492 13.5328 33.1492 13.2398 33.4422L12.3969 34.2852C12.1773 34.1805 11.9516 34.0875 11.7219 34.0055V32.8125C11.7219 32.3813 11.3719 32.0312 10.9406 32.0312H7.80938C7.37813 32.0312 7.02813 32.3813 7.02813 32.8125V34.0016C6.79766 34.0828 6.57187 34.1766 6.35078 34.2813L5.51016 33.4406C5.36328 33.2938 5.16484 33.2117 4.95781 33.2117C4.75078 33.2117 4.55156 33.2938 4.40547 33.4406L2.19141 35.6547C2.04453 35.8016 1.9625 36 1.9625 36.207C1.9625 36.4141 2.04453 36.6133 2.19141 36.7594L3.03125 37.5992C2.92578 37.8211 2.83203 38.0469 2.75 38.2781H1.5625C1.13125 38.2781 0.78125 38.6281 0.78125 39.0594V42.1906C0.78125 42.6219 1.13125 42.9719 1.5625 42.9719V42.9719ZM2.34375 39.8406H3.32734C3.68359 39.8406 3.99453 39.5992 4.08359 39.2547C4.21094 38.7617 4.40625 38.2898 4.66406 37.8531C4.84531 37.5461 4.79531 37.1555 4.54375 36.9039L3.84766 36.2078L4.95703 35.0984L5.65313 35.7953C5.90391 36.0469 6.29375 36.0969 6.60234 35.9156C7.03906 35.6586 7.51016 35.4633 8.00313 35.3367C8.34844 35.2477 8.58906 34.9367 8.58906 34.5805V33.5938H10.1578V34.5812C10.1578 34.9375 10.3984 35.2484 10.743 35.3375C11.2367 35.4656 11.707 35.6609 12.143 35.918C12.4492 36.0984 12.8414 36.0492 13.0922 35.7977L13.7906 35.0984L14.9 36.2078L14.2 36.9078C13.9484 37.1594 13.8984 37.55 14.0797 37.857C14.3359 38.2922 14.5305 38.7625 14.6578 39.2563C14.7469 39.6008 15.0578 39.8422 15.4141 39.8422H16.4062V41.4109H15.4164C15.0602 41.4109 14.7492 41.6516 14.6602 41.9969C14.5328 42.4898 14.3375 42.9609 14.082 43.3961C13.9008 43.7031 13.9508 44.0938 14.2023 44.3453L14.9016 45.0445L13.7922 46.1539L13.0938 45.4531C12.843 45.2016 12.4516 45.1516 12.1445 45.3328C11.7094 45.5898 11.2383 45.7852 10.7445 45.9133C10.4 46.0023 10.1594 46.3133 10.1594 46.6695V47.6562H8.59063V46.6703C8.59063 46.3141 8.34922 46.0031 8.00469 45.9141C7.51172 45.7867 7.03984 45.5922 6.60391 45.3352C6.29531 45.1547 5.90547 45.2047 5.65469 45.4555L4.95859 46.1516L3.84922 45.0422L4.54453 44.3469C4.79687 44.0953 4.84609 43.7047 4.66484 43.3977C4.40703 42.9602 4.21172 42.4891 4.08438 41.9961C3.99531 41.6516 3.68438 41.4102 3.32813 41.4102H2.34375V39.8406Z" fill="#FA7A0A"/>
<path d="M9.375 44.5312C11.5289 44.5312 13.2812 42.7789 13.2812 40.625C13.2812 38.4711 11.5289 36.7188 9.375 36.7188C7.22109 36.7188 5.46875 38.4711 5.46875 40.625C5.46875 42.7789 7.22109 44.5312 9.375 44.5312ZM9.375 38.2812C10.6672 38.2812 11.7188 39.3328 11.7188 40.625C11.7188 41.9172 10.6672 42.9688 9.375 42.9688C8.08281 42.9688 7.03125 41.9172 7.03125 40.625C7.03125 39.3328 8.08281 38.2812 9.375 38.2812Z" fill="#FA7A0A"/>
<path d="M49.1781 4.89531C49.0851 4.61797 48.8445 4.41484 48.5555 4.37109L45.7289 3.93984L44.4578 1.23125C44.3289 0.95625 44.0531 0.78125 43.75 0.78125C43.4469 0.78125 43.1711 0.95625 43.043 1.23047L41.7719 3.93906L38.9453 4.37031C38.6555 4.41484 38.4156 4.61719 38.3226 4.89453C38.2297 5.17187 38.3 5.47891 38.5039 5.68828L40.5719 7.80781L40.0828 10.8109C40.0344 11.1063 40.1594 11.4031 40.4039 11.5758C40.6484 11.7477 40.9695 11.7648 41.232 11.6211L43.75 10.2289L46.2687 11.6211C46.3867 11.6859 46.5172 11.7188 46.6469 11.7188C46.8047 11.7188 46.9625 11.6703 47.0969 11.5758C47.3414 11.4039 47.4664 11.1063 47.418 10.8109L46.9289 7.80781L48.9969 5.68828C49.2015 5.47969 49.2711 5.17344 49.1781 4.89531V4.89531ZM45.5344 7C45.3609 7.17734 45.2828 7.42656 45.3226 7.67109L45.6164 9.475L44.1273 8.65234C44.0101 8.5875 43.8797 8.55469 43.7492 8.55469C43.6187 8.55469 43.489 8.5875 43.3711 8.65234L41.882 9.475L42.1758 7.67109C42.2156 7.42656 42.1375 7.17734 41.964 7L40.682 5.68594L42.418 5.42109C42.6758 5.38125 42.8969 5.21641 43.007 4.98047L43.75 3.40156L44.4914 4.98047C44.6023 5.21641 44.8234 5.38125 45.0805 5.42109L46.8164 5.68594L45.5344 7Z" fill="#FA7A0A"/>
<path d="M37.0133 10.2156C36.5883 10.1508 36.1493 10.2633 35.8102 10.5289L29.6805 15.3242C30.0172 14.6766 30.1727 13.9492 30.1102 13.2039C30.0227 12.1641 29.5352 11.2211 28.7376 10.5477C27.9399 9.87422 26.9297 9.55312 25.8891 9.63984C24.8493 9.72812 23.9063 10.2156 23.2329 11.0125C22.5602 11.8102 22.2376 12.8211 22.3251 13.8609C22.4001 14.7422 22.7751 15.543 23.3688 16.1797C22.4594 16.4047 21.6571 16.943 21.1188 17.7125L14.9633 26.1141C14.6118 26.6164 14.5836 27.2586 14.8899 27.7898C15.1954 28.3203 15.761 28.6156 16.3758 28.5672L18.2477 28.4086C18.7024 28.3703 19.1165 28.1359 19.3719 27.7805L23.0883 22.8914L23.3696 26.2273L21.5235 38.8898C20.8266 39.0328 20.1266 39.1609 19.4227 39.2594L19.6391 40.8062C22.0907 40.4633 24.5102 39.8609 26.8297 39.0148C31.3297 37.3742 34.9266 35.0125 37.7001 32.6414L37.8751 32.5891L37.8508 32.5078C40.5266 30.1938 42.4235 27.8836 43.604 26.2359C43.7547 26.025 43.7915 25.7539 43.7016 25.5117C43.6126 25.2687 43.4086 25.0859 43.1579 25.0234L41.9532 24.7219L46.3399 22.2852L47.3758 26.9477L46.3415 26.6031C46.0047 26.4906 45.6368 26.6195 45.4422 26.9141L45.3126 27.1094C35.4915 42.0617 24.5743 45.6867 17.1446 46.0945L17.2297 47.6547C24.9665 47.2297 36.2876 43.5133 46.4149 28.2742L48.1891 28.8656C48.4555 28.9555 48.7501 28.893 48.9594 28.7047C49.1688 28.5164 49.2594 28.2297 49.1985 27.9555L47.636 20.9242C47.5829 20.6836 47.4188 20.482 47.1938 20.3812C46.9688 20.2812 46.7102 20.2906 46.4938 20.4109L39.4626 24.3172C39.1821 24.4727 39.0258 24.7844 39.068 25.1023C39.1094 25.4203 39.3422 25.6805 39.6532 25.7578L41.6415 26.2547C40.611 27.5875 39.1883 29.2102 37.3579 30.8578L35.9649 26.1852C35.8352 25.7836 35.5438 25.4469 35.1821 25.2695L31.9704 23.5969L31.468 19.7781L38.6211 14.3281C39.2829 13.825 39.4344 12.8922 38.9657 12.2055L38.0626 10.8789C37.8219 10.5242 37.4391 10.282 37.0133 10.2156V10.2156ZM26.0204 11.1977C26.0876 11.1922 26.1547 11.1891 26.2219 11.1891C26.7743 11.1891 27.3032 11.382 27.7297 11.7422C28.2079 12.1461 28.5001 12.7117 28.5532 13.3359C28.6055 13.9602 28.4126 14.5672 28.0086 15.0453C27.6047 15.5234 27.0391 15.8164 26.4149 15.8688C25.7899 15.9227 25.1836 15.7281 24.7055 15.3242C24.2274 14.9203 23.9344 14.3547 23.8821 13.7305C23.7735 12.4422 24.7329 11.3063 26.0204 11.1977V11.1977ZM27.0821 37.2398L28.7079 27.8578L31.5797 29.2516L33.2774 34.0172C31.4672 35.2141 29.4055 36.3242 27.0821 37.2398V37.2398ZM30.1626 18.8102C29.9399 18.9797 29.8251 19.2555 29.861 19.5336L30.4751 24.2047C30.5086 24.457 30.6626 24.6781 30.8891 24.7953L34.4735 26.6484L36.061 31.9742C35.5993 32.3508 35.1126 32.7242 34.6063 33.0945L33.0422 28.7039C32.8985 28.3398 32.6266 28.0453 32.2766 27.8742L28.4586 26.0008C28.2383 25.893 27.9797 25.8953 27.7594 26.0062C27.5399 26.118 27.386 26.3266 27.3446 26.5687L25.3899 37.8516C24.654 38.0961 23.9102 38.3211 23.1579 38.5148L24.9297 26.3656C24.9383 26.3063 24.9399 26.2469 24.9352 26.1867L24.4751 20.7375C24.4477 20.4148 24.2251 20.143 23.9149 20.0531C23.604 19.9617 23.2704 20.0734 23.0751 20.3305L18.1172 26.8531L16.2352 27.025L22.3907 18.6234C22.7907 18.0523 23.4188 17.6906 24.1141 17.6313L26.5461 17.4258H26.5477H26.5485L29.6618 17.1625C29.8133 17.1492 29.9579 17.093 30.0774 16.9992L36.7743 11.7602L37.6782 13.0867L30.1626 18.8102Z" fill="#FA7A0A"/>
<path d="M3.125 1.5625H4.6875V3.125H3.125V1.5625Z" fill="#FA7A0A"/>
<path d="M4.6875 3.125H6.25V4.6875H4.6875V3.125Z" fill="#FA7A0A"/>
<path d="M1.5625 3.125H3.125V4.6875H1.5625V3.125Z" fill="#FA7A0A"/>
<path d="M3.125 4.6875H4.6875V6.25H3.125V4.6875Z" fill="#FA7A0A"/>
<path d="M9.375 3.90625H10.9375V5.46875H9.375V3.90625Z" fill="#FA7A0A"/>
<path d="M10.9375 5.46875H12.5V7.03125H10.9375V5.46875Z" fill="#FA7A0A"/>
<path d="M7.8125 5.46875H9.375V7.03125H7.8125V5.46875Z" fill="#FA7A0A"/>
<path d="M9.375 7.03125H10.9375V8.59375H9.375V7.03125Z" fill="#FA7A0A"/>
<path d="M45.3125 43.75H46.875V45.3125H45.3125V43.75Z" fill="#FA7A0A"/>
<path d="M46.875 45.3125H48.4375V46.875H46.875V45.3125Z" fill="#FA7A0A"/>
<path d="M43.75 45.3125H45.3125V46.875H43.75V45.3125Z" fill="#FA7A0A"/>
<path d="M45.3125 46.875H46.875V48.4375H45.3125V46.875Z" fill="#FA7A0A"/>
</g>
<defs>
<clipPath id="clip0_1_532">
<rect width="50" height="50" fill="white"/>
</clipPath>
</defs>
</svg>
